<?xml version="1.0" standalone="no"?>
<!DOCTYPE svg PUBLIC "-//W3C//DTD SVG 20010904//EN"
 "http://www.w3.org/TR/2001/REC-SVG-20010904/DTD/svg10.dtd">
<svg version="1.0" xmlns="http://www.w3.org/2000/svg"
 width="1080.000000pt" height="1080.000000pt" viewBox="0 0 1080.000000 1080.000000"
 preserveAspectRatio="xMidYMid meet">

<g transform="translate(0.000000,1080.000000) scale(0.100000,-0.100000)"
fill="#000000" stroke="none">
<path d="M2230 9089 c0 -5 4 -9 9 -9 5 0 11 -13 14 -28 3 -15 18 -42 34 -59
44 -49 50 -57 73 -103 31 -62 143 -173 158 -158 7 7 12 20 12 29 0 29 29 31
42 4 6 -14 15 -25 20 -25 15 0 30 -52 18 -64 -8 -8 -17 -3 -32 17 -16 22 -23
25 -34 16 -8 -6 -14 -19 -14 -28 0 -21 37 -90 61 -116 27 -27 79 -107 79 -121
0 -20 56 -123 79 -147 58 -59 110 -123 111 -136 0 -8 19 -33 43 -56 55 -54 87
-96 87 -113 0 -23 30 -71 84 -135 29 -34 56 -75 60 -91 10 -41 28 -19 24 30
-2 30 -7 39 -20 38 -10 -1 -15 2 -12 7 10 17 -7 49 -27 49 -10 0 -19 7 -19 15
0 8 9 15 20 15 11 0 20 -6 20 -13 0 -8 11 -19 25 -25 14 -6 25 -18 25 -27 0
-9 9 -15 24 -15 13 0 26 -7 30 -15 7 -18 26 -20 26 -2 0 7 14 18 30 24 35 13
33 25 -12 87 -15 22 -28 45 -28 52 0 7 -3 14 -7 16 -15 6 -64 78 -75 108 -5
17 -18 35 -28 40 -10 5 -21 22 -25 37 -3 16 -24 49 -46 75 -21 26 -39 50 -39
55 0 7 -40 70 -77 121 -9 12 -27 25 -39 28 -13 3 -22 10 -19 14 2 4 -5 19 -18
32 -50 55 -78 94 -84 115 -3 13 -9 23 -13 23 -5 0 -27 39 -50 86 -34 72 -46
88 -75 100 -19 8 -35 21 -35 29 0 8 -11 26 -25 41 -14 15 -25 31 -25 37 0 5
-9 19 -21 31 -29 29 -69 94 -69 111 0 8 -7 15 -16 15 -11 0 -15 -8 -14 -27 4
-51 0 -61 -22 -67 -22 -5 -22 -6 -4 -19 12 -9 17 -20 13 -31 -8 -20 -27 -21
-27 0 0 8 -4 13 -9 10 -16 -10 -39 4 -45 27 -3 12 -16 34 -29 48 -26 28 -87
63 -87 48z m710 -834 c-17 -21 -37 -19 -45 4 -3 11 -17 27 -31 36 -13 9 -22
20 -19 25 4 6 -5 14 -19 20 -28 10 -33 29 -15 47 9 9 28 -4 77 -53 53 -54 62
-67 52 -79z m78 -129 c3 -12 -1 -17 -10 -14 -7 3 -15 13 -16 22 -3 12 1 17 10
14 7 -3 15 -13 16 -22z m47 -26 c4 -6 1 -18 -6 -26 -14 -17 -31 0 -22 23 6 16
19 17 28 3z m53 -102 c3 -14 -4 -18 -32 -18 -40 0 -54 14 -29 29 25 15 57 9
61 -11z"/>
<path d="M3507 8545 c-4 -8 -2 -17 3 -20 6 -4 10 3 10 14 0 25 -6 27 -13 6z"/>
<path d="M3551 8433 c9 -62 32 -133 41 -133 5 0 8 -6 8 -13 0 -7 25 -37 55
-65 54 -52 55 -52 55 -25 -1 37 -31 102 -64 137 -14 16 -26 36 -26 44 0 21
-53 102 -66 102 -8 0 -9 -15 -3 -47z"/>
<path d="M4560 8415 c0 -8 5 -15 10 -15 6 0 10 4 10 9 0 5 9 7 20 4 11 -3 20
0 20 6 0 6 -13 11 -30 11 -20 0 -30 -5 -30 -15z"/>
<path d="M4505 8370 c-3 -5 -1 -10 4 -10 6 0 11 5 11 10 0 6 -2 10 -4 10 -3 0
-8 -4 -11 -10z"/>
<path d="M10270 8359 c0 -5 5 -7 10 -4 6 3 10 8 10 11 0 2 -4 4 -10 4 -5 0
-10 -5 -10 -11z"/>
<path d="M3512 8325 c0 -16 2 -22 5 -12 2 9 2 23 0 30 -3 6 -5 -1 -5 -18z"/>
<path d="M4898 8323 c-10 -2 -18 -9 -18 -14 0 -5 -18 -9 -40 -9 -45 0 -48 -8
-25 -64 12 -27 21 -36 39 -36 16 0 27 7 31 19 3 11 22 32 41 48 28 22 53 30
117 39 l82 12 -76 1 c-42 0 -89 3 -105 5 -16 2 -37 2 -46 -1z"/>
<path d="M5143 8313 c9 -2 23 -2 30 0 6 3 -1 5 -18 5 -16 0 -22 -2 -12 -5z"/>
<path d="M5243 8313 c9 -2 23 -2 30 0 6 3 -1 5 -18 5 -16 0 -22 -2 -12 -5z"/>
<path d="M6025 8270 c-4 -6 7 -10 26 -10 18 0 29 3 25 7 -11 11 -45 13 -51 3z"/>
<path d="M6134 8255 c-4 -9 -1 -28 6 -43 7 -15 14 -37 16 -50 2 -19 0 -21 -11
-12 -12 10 -16 9 -21 -5 -4 -9 -3 -20 2 -24 5 -3 10 -19 11 -34 0 -16 3 -31 6
-34 9 -9 28 8 38 34 9 23 13 25 52 19 23 -4 46 -11 52 -17 5 -5 19 -9 31 -9
12 0 32 -8 44 -18 20 -16 21 -21 9 -43 -31 -58 1 -106 40 -58 16 20 21 21 50
11 29 -10 33 -9 41 12 19 51 48 44 81 -20 28 -56 33 -59 58 -38 14 13 43 18
112 20 l92 3 39 -40 c21 -21 38 -47 38 -58 0 -32 22 -42 48 -21 17 14 21 25
16 44 -5 22 -10 24 -36 19 l-30 -6 3 57 c2 31 0 56 -4 56 -5 0 -23 11 -41 25
-18 14 -37 25 -43 25 -5 0 -18 9 -27 19 -19 21 -56 34 -56 20 0 -5 -9 -9 -20
-9 -13 0 -22 9 -26 25 -9 35 -81 56 -101 29 -7 -10 -13 -21 -13 -26 0 -13 -75
-9 -88 4 -7 7 -12 20 -12 30 0 13 -8 18 -28 18 -29 0 -58 32 -46 52 7 11 -11
9 -64 -8 -18 -5 -24 -2 -28 12 -4 14 -21 24 -57 33 -90 23 -126 25 -133 6z
m148 -77 c-9 -9 -15 -9 -24 0 -9 9 -7 12 12 12 19 0 21 -3 12 -12z m-72 -8 c0
-5 -2 -10 -4 -10 -3 0 -8 5 -11 10 -3 6 -1 10 4 10 6 0 11 -4 11 -10z m560
-184 c0 -24 -18 -28 -30 -6 -9 17 -8 20 10 20 11 0 20 -6 20 -14z"/>
<path d="M4646 8253 c-4 -5 -51 -9 -104 -11 -183 -6 -177 -5 -180 -30 -4 -25
-30 -41 -41 -25 -18 26 -68 51 -94 46 -27 -5 -38 -23 -14 -23 8 0 22 -9 32
-20 17 -19 17 -21 -9 -45 -15 -14 -31 -25 -36 -25 -18 0 -58 -46 -62 -70 -2
-17 -10 -26 -26 -28 -25 -4 -41 23 -23 41 6 6 11 35 11 64 0 50 -2 53 -24 53
-14 0 -27 -4 -30 -9 -9 -14 -106 -58 -167 -75 -45 -13 -62 -13 -87 -4 -18 7
-32 17 -32 24 0 6 -9 19 -20 29 -16 14 -20 15 -20 3 0 -8 6 -23 14 -34 13 -17
12 -21 -11 -41 -14 -13 -34 -23 -45 -23 -10 0 -18 -4 -18 -10 0 -5 3 -9 8 -9
49 8 70 -27 48 -81 l-15 -38 34 -38 c19 -21 35 -46 35 -56 0 -23 45 -41 83
-34 21 4 32 0 49 -19 24 -27 38 -24 38 8 0 29 -23 94 -38 109 -7 7 -12 18 -12
24 0 17 64 36 129 39 31 1 57 7 59 13 2 7 18 12 36 12 33 0 51 -7 140 -50 50
-24 51 -26 49 -67 -2 -44 -27 -93 -48 -93 -7 0 -20 -16 -29 -35 -9 -19 -21
-37 -26 -40 -18 -11 -10 -44 14 -60 30 -20 52 -11 65 26 5 16 15 30 20 30 23
3 27 5 61 26 19 12 54 29 77 38 23 9 44 23 47 31 3 8 12 14 20 14 8 0 23 10
33 23 24 28 35 31 110 28 47 -2 77 4 126 23 35 14 74 26 86 26 14 0 25 7 28
19 3 11 16 22 29 25 13 4 24 11 24 16 0 17 -48 11 -82 -10 -37 -22 -126 -28
-146 -8 -9 9 -17 9 -34 0 -16 -9 -33 -10 -57 -2 -19 5 -38 7 -42 4 -12 -7 -48
13 -82 44 -24 23 -31 25 -47 14 -11 -7 -42 -12 -70 -12 -44 0 -52 3 -62 25
-12 27 2 75 22 75 6 0 7 17 3 45 -5 41 -4 45 16 45 11 0 30 9 42 21 26 26 50
18 90 -29 23 -28 33 -33 37 -22 10 28 60 70 84 70 30 0 45 11 45 33 0 19 -1
20 -11 10z m-846 -208 c0 -27 -1 -28 -24 -19 -28 11 -17 40 17 43 4 1 7 -10 7
-24z m60 -80 c0 -38 -19 -50 -55 -33 -31 14 -31 19 -1 51 32 34 56 26 56 -18z
m220 30 c0 -16 -35 -21 -45 -6 -4 8 9 15 38 20 4 0 7 -6 7 -14z m172 -7 c-6
-6 -16 -7 -22 -3 -9 6 -9 9 1 16 17 10 34 0 21 -13z m228 -154 c0 -32 -60 -58
-75 -34 -4 6 -2 17 5 25 10 12 21 16 63 24 4 0 7 -6 7 -15z"/>
<path d="M3555 8237 c-4 -10 -5 -21 -1 -24 10 -10 18 4 13 24 -4 17 -4 17 -12
0z"/>
<path d="M5598 8228 c-3 -7 -2 -23 0 -35 4 -19 7 -21 18 -12 18 15 18 59 0 59
-8 0 -16 -5 -18 -12z"/>
<path d="M4880 8145 c0 -12 -5 -26 -12 -33 -14 -14 -2 -29 27 -32 37 -4 42 0
37 25 -2 14 -10 24 -16 22 -6 -2 -16 5 -23 17 -12 21 -12 21 -13 1z"/>
<path d="M5304 8122 c-11 -10 -24 -33 -27 -52 -5 -23 -4 -30 2 -21 7 11 11 6
16 -21 5 -24 15 -39 30 -46 22 -10 26 -7 46 25 l22 36 -28 24 c-21 18 -25 27
-16 36 33 33 -7 50 -45 19z"/>
<path d="M5614 8084 c3 -9 6 -17 6 -18 0 -6 81 3 91 9 20 13 -5 25 -53 25 -42
0 -49 -3 -44 -16z"/>
<path d="M6025 8090 c-4 -6 7 -10 27 -10 25 0 29 3 18 10 -19 13 -37 13 -45 0z"/>
<path d="M2456 8052 c-8 -7 48 -72 62 -72 30 0 1 66 -32 72 -14 3 -28 3 -30 0z"/>
<path d="M5948 8026 c-27 -33 -27 -35 -8 -41 23 -7 80 3 80 14 0 16 -26 61
-35 61 -5 0 -22 -15 -37 -34z"/>
<path d="M5010 7994 c0 -7 6 -14 14 -14 26 0 26 -29 1 -46 -52 -34 -15 -124
51 -124 21 0 24 4 19 20 -4 12 2 30 14 47 20 27 20 73 1 73 -5 0 -11 13 -15
28 -5 24 -11 28 -45 29 -29 2 -40 -2 -40 -13z"/>
<path d="M3613 7953 c-33 -27 -53 -35 -97 -40 -59 -6 -77 -23 -25 -23 24 0 30
-4 25 -15 -4 -11 2 -15 20 -15 13 0 27 6 30 14 3 8 19 20 35 26 16 7 26 17 23
22 -4 7 6 9 28 6 35 -4 35 -3 25 22 -17 40 -20 40 -64 3z"/>
<path d="M2532 7961 c3 -9 30 -41 172 -198 21 -24 44 -43 51 -43 6 0 18 -11
25 -25 7 -13 17 -22 22 -19 4 3 8 1 8 -5 0 -6 16 -26 35 -46 30 -29 37 -32 42
-18 4 10 -3 24 -21 40 -15 12 -25 27 -21 32 3 5 -8 19 -25 31 -21 15 -32 33
-36 60 -4 22 -13 45 -20 51 -8 6 -11 16 -8 21 7 11 -24 48 -42 48 -7 0 -14 -5
-16 -10 -2 -7 -13 -6 -30 2 -20 9 -28 21 -28 38 0 20 -7 29 -33 38 -40 14 -80
16 -75 3z"/>
<path d="M5321 7913 c-12 -10 -22 -30 -23 -45 -1 -16 -6 -28 -10 -28 -4 0 -8
-29 -8 -65 0 -56 3 -67 26 -90 14 -14 33 -25 42 -23 21 5 17 38 -7 58 -24 21
-33 50 -20 66 17 21 50 17 56 -6 4 -16 14 -20 47 -20 32 0 47 6 69 29 32 35
33 41 7 41 -11 0 -20 4 -20 9 0 14 -52 24 -60 11 -4 -7 -16 -10 -26 -8 -14 3
-18 11 -17 33 2 28 -11 55 -27 55 -4 0 -17 -8 -29 -17z"/>
<path d="M9585 7901 c-10 -17 10 -20 35 -5 l25 13 -27 1 c-15 0 -29 -4 -33 -9z"/>
<path d="M6228 7866 c-20 -15 -26 -100 -8 -111 15 -10 12 -52 -6 -70 -9 -8
-17 -29 -18 -46 -1 -28 3 -32 49 -50 60 -23 55 -22 55 -4 0 8 -3 15 -8 15 -4
0 -13 18 -20 41 -15 49 -4 69 40 69 32 0 45 20 29 47 -9 15 -10 16 -11 2 0
-19 -19 -19 -72 0 -34 11 -38 16 -38 47 0 26 4 34 18 34 11 0 27 -9 37 -20 27
-30 46 -25 43 11 -3 35 -2 35 -43 43 -18 3 -37 0 -47 -8z"/>
<path d="M9478 7839 c-32 -16 -58 -33 -58 -38 0 -12 60 -12 83 0 11 6 16 17
13 25 -3 8 -2 13 3 10 5 -3 20 3 32 14 22 18 23 19 4 18 -11 0 -46 -13 -77
-29z"/>
<path d="M7032 7833 c-25 -5 -25 -21 0 -37 19 -11 48 7 48 30 0 14 -6 15 -48
7z"/>
<path d="M7147 7806 c-3 -8 -16 -16 -29 -18 -19 -2 -23 -9 -23 -38 0 -31 3
-35 29 -38 19 -2 32 2 38 12 13 23 117 18 181 -9 9 -4 17 -3 17 3 0 5 -9 12
-19 15 -11 2 -21 15 -23 28 -3 21 -10 25 -55 29 -29 3 -58 11 -65 18 -16 16
-45 15 -51 -2z"/>
<path d="M9380 7773 c-14 -9 -27 -20 -30 -24 -3 -3 -15 -9 -27 -13 -13 -4 -23
-13 -23 -21 0 -7 -11 -16 -25 -19 -14 -4 -33 -14 -43 -24 -10 -9 -33 -25 -52
-35 -77 -40 -90 -49 -100 -68 -6 -10 -17 -19 -25 -19 -7 0 -17 -9 -20 -20 -3
-11 -17 -23 -31 -26 -13 -3 -24 -12 -24 -20 0 -23 25 -16 58 16 18 17 35 30
38 30 3 0 17 9 31 20 14 11 32 20 40 20 16 0 153 108 153 121 0 5 11 9 25 9
13 0 37 13 54 29 16 16 35 31 42 33 7 2 9 10 5 16 -10 16 -17 15 -46 -5z"/>
<path d="M3398 7755 c-7 -16 -19 -25 -34 -25 -13 0 -26 -5 -30 -11 -3 -6 -19
-19 -35 -28 l-29 -18 25 -27 c14 -15 25 -35 25 -44 0 -22 70 -62 109 -62 25 0
33 7 52 44 12 24 32 56 45 71 31 37 22 48 -35 41 -61 -8 -80 4 -61 38 7 14 20
26 27 26 8 0 11 5 8 10 -13 20 -55 11 -67 -15z"/>
<path d="M6058 7725 c-8 -8 3 -55 13 -55 5 0 9 14 9 30 0 28 -9 38 -22 25z"/>
<path d="M6567 7723 c-11 -10 -8 -53 3 -53 6 0 10 14 10 30 0 31 -2 35 -13 23z"/>
<path d="M3960 7675 c0 -8 5 -15 10 -15 6 0 10 7 10 15 0 8 -4 15 -10 15 -5 0
-10 -7 -10 -15z"/>
<path d="M5702 7660 c7 -11 21 -20 30 -20 11 0 18 8 18 20 0 16 -7 20 -30 20
-28 0 -29 -2 -18 -20z"/>
<path d="M5819 7649 c-10 -19 -9 -25 7 -36 10 -7 24 -13 31 -13 7 0 13 -4 13
-10 0 -5 7 -10 16 -10 29 0 13 52 -23 73 -31 18 -32 18 -44 -4z"/>
<path d="M7414 7649 c-4 -7 10 -26 35 -46 22 -19 41 -41 41 -49 0 -8 15 -16
39 -20 44 -7 121 -72 121 -102 0 -9 34 -48 75 -87 59 -54 75 -75 75 -97 0 -24
7 -32 45 -48 27 -11 45 -26 45 -35 0 -32 -21 -55 -60 -65 -46 -12 -51 -26 -15
-42 14 -6 25 -15 25 -19 0 -17 -43 -37 -68 -32 -73 14 -158 -5 -133 -30 6 -6
11 -21 11 -33 0 -19 -6 -23 -40 -26 -50 -4 -53 -19 -5 -33 22 -6 41 -20 48
-35 8 -17 22 -26 42 -28 17 -2 41 -14 55 -27 14 -13 46 -29 72 -35 65 -17 74
-30 61 -87 -7 -31 -8 -55 -1 -75 11 -32 10 -31 41 -17 18 8 36 7 75 -4 44 -14
52 -14 63 -1 6 8 17 14 24 14 7 0 41 -48 74 -107 39 -70 70 -112 86 -120 14
-6 25 -7 25 -3 0 5 18 14 40 22 43 14 53 31 20 36 -24 4 -35 23 -43 75 -5 32
-3 37 14 37 10 0 22 0 27 1 4 0 10 -19 14 -43 4 -23 15 -48 23 -54 8 -6 15
-16 15 -23 0 -7 9 -9 24 -5 22 5 25 2 28 -27 2 -24 10 -37 28 -46 23 -12 24
-16 22 -90 -3 -99 -12 -163 -22 -163 -12 0 -25 19 -61 90 -36 71 -49 85 -61
67 -21 -34 5 -97 40 -97 7 0 12 -6 12 -13 0 -21 44 -57 68 -57 13 0 22 6 22
16 0 14 2 14 15 0 8 -8 15 -23 15 -34 0 -11 11 -27 25 -36 25 -16 33 -50 15
-61 -6 -4 -5 -16 2 -33 6 -15 14 -43 17 -62 6 -30 10 -35 36 -36 17 0 36 -1
43 -2 16 -3 15 -38 -2 -54 -12 -11 -11 -16 5 -34 15 -16 17 -26 9 -50 -27 -84
-29 -147 -7 -222 20 -67 25 -76 59 -93 21 -11 38 -22 38 -25 0 -2 -10 -18 -22
-34 -17 -24 -21 -43 -21 -102 0 -45 6 -86 15 -108 20 -43 30 -84 32 -130 1
-19 6 -37 11 -40 13 -8 26 45 36 155 5 55 11 121 15 147 4 34 1 56 -10 80 -12
23 -19 83 -27 212 -7 122 -14 185 -23 196 -8 8 -16 32 -20 52 -4 21 -15 42
-25 48 -11 5 -21 26 -25 51 -4 22 -13 54 -22 70 -8 16 -19 52 -24 81 -6 29
-16 56 -24 60 -8 4 -17 27 -20 51 -4 24 -15 59 -25 78 -10 19 -21 49 -24 67
-6 31 -27 62 -42 62 -10 0 -50 52 -50 64 0 6 11 13 25 16 21 5 26 13 31 55 4
28 3 54 -2 59 -11 13 -34 -8 -49 -44 -10 -23 -19 -30 -41 -30 -15 0 -30 4 -33
9 -9 14 -8 64 3 105 16 62 -12 91 -196 200 -34 20 -71 49 -83 64 -36 48 -40
52 -64 52 -17 0 -25 7 -28 25 -8 38 16 116 42 137 l23 19 -21 15 c-12 8 -22
21 -22 28 0 6 -16 18 -35 25 -19 7 -35 16 -35 21 0 5 -11 21 -25 36 -22 24
-24 29 -10 36 8 5 23 8 32 6 26 -4 27 28 3 52 -21 21 -27 22 -106 3 -28 -6
-39 23 -19 53 8 13 15 30 15 39 0 21 -50 64 -74 65 -27 0 -103 51 -115 78 -6
12 -17 22 -26 22 -8 0 -15 9 -15 20 0 11 -7 20 -15 20 -8 0 -23 9 -32 20 -10
11 -29 20 -43 20 -14 1 -36 7 -50 15 -30 17 -66 19 -76 4z m266 -749 c0 -5 -4
-10 -10 -10 -5 0 -10 5 -10 10 0 6 5 10 10 10 6 0 10 -4 10 -10z m460 -269 c0
-6 -4 -13 -10 -16 -5 -3 -10 1 -10 9 0 9 5 16 10 16 6 0 10 -4 10 -9z m100
-140 c0 -20 -36 -36 -46 -20 -7 13 14 39 32 39 8 0 14 -8 14 -19z"/>
<path d="M4000 7591 c0 -43 4 -52 29 -70 36 -26 43 -26 64 -3 37 41 4 92 -72
117 -19 6 -21 2 -21 -44z"/>
<path d="M2950 7588 c0 -7 -9 -19 -20 -26 -27 -17 -17 -32 22 -32 25 0 29 3
25 20 -4 15 0 20 14 20 10 0 19 5 19 10 0 6 -6 10 -14 10 -8 0 -21 3 -30 6
-10 4 -16 1 -16 -8z"/>
<path d="M3130 7585 c-10 -12 -10 -15 3 -15 19 0 31 16 18 24 -5 3 -14 -1 -21
-9z"/>
<path d="M7120 7581 c0 -12 7 -21 15 -21 8 0 15 -4 15 -10 0 -5 9 -10 19 -10
16 0 18 5 12 28 -9 35 -61 46 -61 13z"/>
<path d="M5915 7557 c-3 -12 -2 -33 2 -45 l9 -23 26 21 c22 17 31 19 46 9 14
-9 25 -8 52 6 l33 17 -24 19 c-17 13 -41 19 -81 19 -52 0 -58 -2 -63 -23z"/>
<path d="M6776 7542 c-3 -5 4 -18 15 -28 21 -19 21 -19 18 5 -4 25 -23 39 -33
23z"/>
<path d="M3527 7441 c-32 -48 -33 -53 -8 -68 11 -7 21 -24 23 -39 5 -48 25
-38 30 15 4 39 11 55 34 74 33 29 27 43 -22 53 -27 5 -33 1 -57 -35z"/>
<path d="M5283 7443 c-3 -10 -12 -25 -18 -33 -16 -20 -28 -70 -16 -70 17 0 61
61 61 85 0 30 -18 42 -27 18z"/>
<path d="M5558 7454 c-4 -3 3 -21 16 -38 13 -17 26 -40 30 -52 10 -33 53 -86
61 -75 3 6 26 11 51 11 49 0 61 13 50 55 -4 16 -13 25 -26 25 -10 0 -22 4 -25
10 -3 5 -19 7 -34 4 -24 -5 -32 -1 -47 22 -10 16 -18 30 -18 31 -3 6 -53 13
-58 7z"/>
<path d="M7425 7451 c-3 -7 -9 -37 -12 -69 -5 -60 -25 -112 -57 -149 -10 -12
-20 -41 -23 -65 -7 -57 28 -98 81 -98 47 0 53 14 21 59 l-26 39 25 38 c14 22
33 47 42 56 15 15 15 22 5 45 -7 16 -17 52 -22 82 -9 57 -22 81 -34 62z"/>
<path d="M8914 7452 c-6 -4 -13 -15 -17 -24 -3 -10 -16 -18 -27 -18 -11 0 -20
-7 -20 -15 0 -14 3 -14 28 -1 16 8 34 22 41 30 8 9 20 16 27 16 8 0 14 5 14
10 0 12 -30 13 -46 2z"/>
<path d="M3208 7443 c6 -2 18 -2 25 0 6 3 1 5 -13 5 -14 0 -19 -2 -12 -5z"/>
<path d="M2780 7401 c0 -14 6 -17 30 -13 37 5 34 26 -3 29 -20 1 -27 -3 -27
-16z"/>
<path d="M7064 7405 c-4 -8 -4 -22 0 -30 3 -8 1 -26 -5 -39 -16 -34 8 -81 41
-81 22 0 25 4 22 32 -2 25 2 35 22 49 14 9 26 20 26 25 0 8 -80 59 -94 59 -4
0 -9 -7 -12 -15z"/>
<path d="M4385 7370 c-3 -5 -1 -10 4 -10 6 0 11 5 11 10 0 6 -2 10 -4 10 -3 0
-8 -4 -11 -10z"/>
<path d="M2894 7356 c-3 -8 -17 -17 -30 -20 -39 -10 -133 -113 -148 -163 -7
-21 -45 -44 -128 -77 -34 -13 -38 -19 -38 -49 0 -20 7 -40 16 -48 14 -11 15
-27 10 -104 -6 -84 -5 -93 14 -110 11 -10 20 -31 20 -46 0 -36 27 -52 67 -39
26 9 28 14 28 62 0 51 1 53 39 73 21 11 38 24 36 29 -1 5 4 12 11 17 15 9 2
16 -41 21 -23 3 -25 7 -23 48 2 25 -5 66 -14 91 -24 70 -13 81 82 83 l78 1 19
37 c11 20 21 56 22 80 2 24 7 62 11 86 6 35 4 42 -9 42 -9 0 -19 -6 -22 -14z"/>
<path d="M8760 7340 c0 -15 -7 -20 -24 -20 -27 0 -42 -15 -26 -25 6 -4 23 2
37 12 14 10 34 23 44 29 33 19 33 24 1 24 -25 0 -32 -4 -32 -20z"/>
<path d="M6560 7286 c0 -27 21 -47 28 -27 3 8 13 22 23 32 19 19 18 19 -16 19
-30 0 -35 -3 -35 -24z"/>
<path d="M3367 7283 c-11 -10 -8 -43 3 -43 15 0 24 30 13 41 -5 5 -12 6 -16 2z"/>
<path d="M5610 7280 c-12 -8 -11 -10 8 -10 12 0 22 5 22 10 0 13 -11 13 -30 0z"/>
<path d="M8650 7273 c-8 -4 -28 -19 -43 -35 l-29 -28 27 0 c14 0 28 7 32 16 3
8 16 20 29 25 13 4 24 13 24 19 0 11 -16 12 -40 3z"/>
<path d="M6700 7260 c0 -5 21 -10 48 -9 38 1 42 2 22 9 -36 12 -70 12 -70 0z"/>
<path d="M4230 7240 c6 -11 13 -20 15 -20 3 0 5 9 5 20 0 11 -7 20 -15 20 -13
0 -14 -4 -5 -20z"/>
<path d="M6808 7253 c6 -2 18 -2 25 0 6 3 1 5 -13 5 -14 0 -19 -2 -12 -5z"/>
<path d="M8290 7169 c0 -12 5 -19 12 -17 18 6 20 25 3 31 -10 5 -15 0 -15 -14z"/>
<path d="M6857 7163 c-2 -5 -5 -28 -6 -52 0 -25 -7 -52 -15 -60 -11 -12 -12
-21 -4 -34 9 -17 11 -18 29 -1 10 9 16 20 14 25 -9 13 35 21 50 9 8 -7 15 -23
15 -36 0 -28 24 -32 54 -9 11 8 35 15 53 15 28 0 33 4 33 23 0 45 -46 62 -82
31 -16 -16 -20 -14 -56 22 -21 22 -41 47 -45 57 -6 17 -32 24 -40 10z"/>
<path d="M8247 7143 c-14 -13 -6 -23 18 -23 18 0 23 4 19 15 -6 16 -26 20 -37
8z"/>
<path d="M3367 7115 c-9 -8 -20 -15 -25 -15 -5 0 -17 -9 -27 -20 -11 -12 -31
-20 -52 -20 -23 0 -33 -5 -33 -15 0 -8 8 -15 18 -16 9 0 42 -4 72 -8 68 -10
80 -2 80 55 0 48 -11 61 -33 39z"/>
<path d="M8448 7116 c-8 -7 -30 -17 -49 -21 -41 -9 -163 -105 -150 -118 15
-15 80 10 129 50 70 57 113 103 97 103 -7 0 -20 -6 -27 -14z"/>
<path d="M3070 7093 c-28 -11 -70 -65 -70 -89 0 -32 43 -43 79 -21 14 9 41 24
59 34 36 19 53 60 31 74 -16 10 -76 11 -99 2z"/>
<path d="M7470 7051 c0 -24 15 -35 37 -27 14 6 14 9 -2 26 -23 25 -35 25 -35
1z"/>
<path d="M6421 7016 l-23 -24 21 -11 c32 -18 71 10 71 50 0 18 -47 8 -69 -15z"/>
<path d="M8110 7030 c0 -5 5 -10 10 -10 6 0 10 5 10 10 0 6 -4 10 -10 10 -5 0
-10 -4 -10 -10z"/>
<path d="M8202 6963 c-18 -3 -32 -9 -30 -14 2 -6 7 -9 10 -7 4 2 14 -6 22 -17
15 -20 15 -20 16 1 0 11 5 25 12 32 7 7 10 11 8 10 -3 0 -20 -3 -38 -5z"/>
<path d="M7507 6954 c-15 -16 -5 -24 29 -24 24 0 34 4 32 13 -5 13 -50 22 -61
11z"/>
<path d="M7161 6931 c-6 -11 -11 -29 -11 -41 0 -13 -8 -24 -20 -27 -11 -3 -20
-14 -20 -24 0 -11 -6 -19 -12 -19 -7 0 -20 -21 -28 -48 -15 -47 -15 -47 -62
-50 -27 -2 -48 -6 -48 -10 0 -4 -11 -8 -25 -8 -14 -1 -25 2 -25 7 0 5 -5 9
-10 9 -7 0 -7 -6 -1 -17 5 -10 12 -26 15 -35 2 -9 15 -18 28 -20 15 -2 22 -9
20 -20 -2 -13 4 -18 20 -17 29 1 99 27 76 28 -10 1 -18 5 -18 11 0 6 3 9 8 8
4 -2 19 10 34 25 34 34 57 34 92 2 32 -30 42 -31 55 -7 8 14 27 17 125 19 63
1 120 4 127 8 8 5 10 -7 6 -46 -10 -99 -17 -119 -42 -119 -36 0 -88 -48 -80
-74 4 -12 6 -28 6 -36 0 -30 10 -60 19 -60 6 0 10 6 10 13 0 7 11 23 25 35 18
16 25 32 25 57 0 40 25 67 93 100 45 22 96 86 97 122 0 26 -47 43 -122 43 -28
0 -48 5 -48 11 0 6 -9 22 -20 36 -11 14 -20 21 -20 14 0 -7 -20 -11 -52 -11
-50 0 -54 2 -68 33 -11 22 -23 33 -42 35 -23 3 -27 -1 -33 -37 -8 -51 -29 -53
-45 -5 -10 30 -10 38 1 45 45 27 45 27 12 59 -31 30 -32 30 -42 11z m-149
-238 c25 -22 23 -32 -9 -44 -33 -12 -48 1 -39 35 7 30 22 33 48 9z"/>
<path d="M6480 6895 c0 -8 8 -11 20 -8 11 3 20 7 20 8 0 1 -9 5 -20 8 -12 3
-20 0 -20 -8z"/>
<path d="M4796 6832 c-13 -26 -13 -29 5 -40 25 -16 32 -15 26 2 -3 8 3 22 14
32 26 23 24 34 -6 34 -17 0 -29 -9 -39 -28z"/>
<path d="M8258 6803 c7 -3 16 -2 19 1 4 3 -2 6 -13 5 -11 0 -14 -3 -6 -6z"/>
<path d="M4830 6725 c0 -15 4 -24 10 -20 6 3 10 12 10 20 0 8 -4 17 -10 20 -6
4 -10 -5 -10 -20z"/>
<path d="M6796 6724 c-9 -24 3 -35 25 -23 16 8 18 13 8 25 -15 18 -25 18 -33
-2z"/>
<path d="M8840 6710 c0 -5 4 -10 9 -10 6 0 13 5 16 10 3 6 -1 10 -9 10 -9 0
-16 -4 -16 -10z"/>
<path d="M8778 6677 c-32 -12 -38 -31 -8 -23 11 3 29 9 40 12 22 6 28 25 8 23
-7 -1 -25 -6 -40 -12z"/>
<path d="M2493 6628 c-4 -7 -20 -35 -34 -63 -30 -55 -58 -68 -89 -40 -11 10
-31 15 -51 13 -27 -2 -38 -11 -60 -49 -15 -26 -29 -55 -31 -65 -2 -11 -13 -20
-26 -22 -12 -2 -22 -7 -22 -10 0 -4 35 -6 77 -4 83 5 103 -6 103 -55 0 -57 99
5 116 72 3 14 10 25 14 25 4 0 10 17 13 38 3 20 11 60 17 89 13 52 9 83 -9 83
-5 0 -13 -6 -18 -12z m-166 -200 c-3 -8 -6 -5 -6 6 -1 11 2 17 5 13 3 -3 4
-12 1 -19z"/>
<path d="M8680 6633 c-31 -3 -52 -11 -67 -28 -30 -31 -29 -35 8 -35 22 0 32 5
36 19 3 12 17 21 39 25 18 4 36 11 39 16 4 6 3 9 -2 8 -4 -1 -28 -3 -53 -5z"/>
<path d="M7228 6584 c-7 -8 -21 -23 -30 -32 -22 -20 -23 -32 -4 -32 22 0 46
-40 46 -78 0 -38 -24 -102 -39 -102 -5 0 -13 -20 -17 -46 -5 -37 -3 -47 12
-59 24 -18 34 -19 34 -1 0 7 15 25 33 38 18 14 39 37 46 52 13 23 12 28 -2 43
-11 13 -16 42 -18 108 -1 50 -6 98 -11 108 -11 21 -33 22 -50 1z"/>
<path d="M4600 6580 c0 -5 5 -10 10 -10 6 0 10 5 10 10 0 6 -4 10 -10 10 -5 0
-10 -4 -10 -10z"/>
<path d="M5614 6576 c-4 -9 -19 -23 -35 -32 -20 -10 -29 -22 -29 -39 0 -26 9
-30 38 -17 61 31 77 43 80 62 3 16 0 20 -9 15 -7 -5 -17 -1 -25 10 -12 17 -14
17 -20 1z"/>
<path d="M6787 6558 c-14 -24 -22 -29 -40 -23 -41 12 -51 10 -55 -10 -2 -11
-14 -31 -27 -45 -13 -14 -25 -34 -27 -45 -2 -11 -14 -25 -28 -32 -24 -12 -24
-13 -3 -13 12 0 26 -6 30 -13 12 -19 106 -39 146 -32 30 6 38 3 52 -18 21 -32
15 -110 -11 -138 -14 -16 -27 -19 -60 -15 -23 2 -51 10 -62 17 -17 10 -23 10
-36 0 -9 -8 -16 -19 -16 -26 0 -18 -30 -40 -53 -40 -31 0 -42 -52 -15 -66 17
-9 24 -7 42 13 22 25 52 26 71 3 5 -7 28 -18 50 -25 22 -7 52 -21 67 -31 37
-26 48 -24 48 11 0 51 61 53 68 2 4 -23 -31 -48 -50 -36 -6 4 -9 1 -6 -7 2 -8
22 -23 43 -34 49 -25 61 -35 69 -63 9 -27 62 -31 80 -7 10 14 15 14 48 1 32
-14 37 -21 40 -53 3 -36 5 -38 41 -41 20 -2 37 0 37 5 -1 4 -14 24 -30 43 -36
41 -40 95 -11 131 16 19 16 25 5 37 -8 7 -14 27 -14 43 0 16 -5 29 -10 29 -11
0 -14 -7 -24 -52 -6 -25 -11 -28 -46 -28 -44 0 -56 12 -51 53 2 19 -3 29 -16
33 -10 4 -28 18 -41 33 -16 18 -25 22 -30 14 -21 -33 -57 48 -47 106 6 35 3
44 -20 67 -22 22 -26 33 -21 62 3 19 13 43 22 53 16 18 12 39 -7 39 -13 0 -64
50 -71 70 -3 8 -1 22 3 32 16 30 -16 27 -34 -4z m-14 -425 c9 -9 -13 -34 -24
-27 -14 8 -11 34 4 34 8 0 17 -3 20 -7z"/>
<path d="M5145 6571 c-3 -5 -1 -12 5 -16 5 -3 10 1 10 9 0 18 -6 21 -15 7z"/>
<path d="M8545 6570 c-8 -13 5 -13 25 0 13 8 13 10 -2 10 -9 0 -20 -4 -23 -10z"/>
<path d="M3033 6533 c-17 -6 -16 -30 1 -36 18 -7 26 1 26 25 0 18 -5 20 -27
11z"/>
<path d="M6337 6425 c-4 -38 -2 -74 3 -79 5 -5 20 -6 34 -2 21 5 26 12 26 37
0 26 5 33 40 46 32 13 39 20 38 39 -2 25 -3 26 -84 28 l-52 1 -5 -70z"/>
<path d="M2595 6440 c-3 -5 -1 -10 4 -10 6 0 11 5 11 10 0 6 -2 10 -4 10 -3 0
-8 -4 -11 -10z"/>
<path d="M4792 6370 c0 -14 2 -19 5 -12 2 6 2 18 0 25 -3 6 -5 1 -5 -13z"/>
<path d="M4954 6355 c-12 -10 -15 -17 -8 -22 12 -9 28 -44 26 -55 -1 -5 7 -17
18 -28 26 -26 25 -55 -2 -74 -12 -9 -17 -16 -11 -16 7 0 14 -25 18 -57 3 -32
11 -68 17 -80 12 -24 4 -78 -13 -100 -20 -24 -112 -10 -131 20 -15 23 -8 56
13 68 16 8 20 17 16 39 -4 16 0 35 7 46 12 15 11 24 -6 56 -18 35 -22 37 -37
24 -14 -13 -19 -13 -35 0 -49 35 -52 8 -26 -231 7 -60 13 -136 14 -168 1 -44
5 -61 19 -68 21 -12 23 -57 2 -65 -10 -4 -15 -20 -15 -50 0 -43 -17 -94 -30
-94 -4 0 -13 7 -20 15 -17 20 -27 10 -38 -42 -7 -32 -7 -40 3 -37 24 10 38
-62 31 -160 -4 -49 -11 -95 -15 -101 -4 -5 -13 -29 -20 -53 -14 -50 -65 -92
-133 -111 -24 -7 -60 -28 -81 -46 -21 -19 -63 -46 -94 -60 -48 -23 -63 -26
-115 -20 -49 6 -62 4 -79 -11 -26 -23 -24 -31 11 -49 39 -20 52 -47 44 -91
-10 -52 -56 -101 -104 -109 l-39 -7 18 -32 c10 -18 22 -50 25 -72 6 -35 3 -43
-29 -78 -19 -21 -35 -42 -35 -47 0 -16 -21 -9 -75 26 -30 19 -55 41 -55 48 0
7 -15 28 -34 46 -34 33 -34 33 -48 12 -7 -11 -18 -21 -24 -21 -19 0 -64 48
-64 68 0 29 12 34 27 12 19 -28 41 -25 49 6 8 29 -5 46 -38 49 -13 1 -27 3
-31 4 -4 0 -17 22 -28 47 -10 26 -30 55 -43 65 -15 12 -27 34 -31 59 -4 22
-15 46 -25 53 -17 12 -39 77 -40 118 0 10 14 19 38 25 34 8 37 12 40 47 3 35
1 38 -28 43 -17 4 -33 11 -36 15 -7 13 -64 11 -64 -1 0 -6 -10 -2 -22 10 -12
11 -27 20 -34 20 -22 0 -26 20 -9 46 10 16 24 24 37 22 18 -3 23 6 37 57 20
74 49 94 106 73 41 -14 52 -40 34 -83 -27 -70 -29 -98 -8 -132 12 -18 24 -33
28 -33 4 0 17 20 28 44 17 34 30 47 57 56 28 9 36 17 36 36 0 27 -16 30 -44 9
-11 -8 -26 -15 -33 -15 -14 0 -40 48 -38 70 1 8 3 42 3 76 2 50 7 66 27 88 14
15 25 34 25 42 0 8 7 17 15 20 9 4 15 19 15 39 0 31 25 65 47 65 10 0 11 35 1
46 -9 9 -49 -6 -43 -16 3 -4 -2 -11 -11 -14 -8 -3 -13 -10 -9 -16 8 -12 -55
-69 -77 -70 -49 -1 -62 79 -21 138 29 44 29 49 -7 120 -16 33 -30 66 -30 73
-1 18 -39 68 -40 51 0 -7 -5 -10 -11 -6 -8 5 -9 -6 -5 -37 18 -120 18 -129 4
-129 -7 0 -18 -8 -25 -19 -22 -35 -51 -33 -95 10 -22 21 -44 37 -48 34 -9 -5
-20 22 -30 75 -7 32 -7 31 -9 -17 0 -28 4 -55 9 -58 6 -3 10 -17 10 -30 0 -27
18 -73 37 -92 6 -7 21 -13 33 -13 24 0 61 -17 72 -34 13 -19 9 -63 -7 -76 -8
-7 -15 -16 -15 -21 0 -5 -8 -18 -17 -29 -10 -11 -25 -28 -33 -38 -20 -23 -19
-55 1 -78 9 -11 19 -32 22 -49 5 -29 -14 -53 -92 -116 -17 -14 -25 -31 -27
-60 -1 -23 -7 -46 -12 -51 -10 -10 -122 -17 -122 -7 0 3 -11 22 -24 41 -26 39
-25 78 2 100 9 8 40 12 79 12 74 -2 83 12 26 42 -29 15 -39 27 -41 49 -3 19
-19 44 -47 70 -23 22 -41 45 -38 52 2 6 -3 23 -12 37 -22 32 -11 64 23 72 15
4 40 18 55 31 16 12 33 23 37 23 5 0 1 15 -10 33 -10 17 -23 51 -29 73 -6 23
-17 44 -25 47 -8 3 -17 19 -21 36 -6 26 -10 30 -30 25 -26 -6 -43 11 -21 23
16 9 51 121 42 131 -4 3 -12 0 -18 -6 -19 -19 -45 -14 -63 11 l-15 22 -7 -24
c-3 -13 -17 -44 -30 -68 -12 -24 -23 -50 -23 -57 0 -7 -9 -25 -20 -38 -20 -26
-25 -94 -8 -104 18 -12 6 -22 -22 -19 -26 4 -31 0 -36 -23 -3 -15 -10 -37 -15
-50 -5 -13 -9 -53 -9 -90 0 -41 -5 -75 -14 -87 -7 -11 -16 -37 -20 -57 -8 -42
-24 -48 -51 -18 -22 24 -58 26 -84 3 -11 -9 -33 -22 -50 -29 -26 -11 -32 -10
-50 5 -20 18 -71 18 -71 1 0 -5 -10 -6 -22 -4 l-23 5 23 -17 c12 -9 22 -23 22
-32 0 -9 10 -26 22 -39 27 -29 17 -53 -26 -64 -22 -6 -37 -2 -67 18 -33 22
-87 88 -103 126 -3 9 -7 8 -14 -1 -7 -10 -13 -5 -26 21 -9 19 -16 42 -16 50 0
8 -9 26 -21 41 -21 27 -66 35 -85 16 -6 -6 -18 -8 -27 -4 -28 10 -30 48 -7 95
27 52 25 156 -3 187 -9 10 -17 26 -17 35 0 11 -12 18 -36 23 -30 5 -48 1 -99
-27 -59 -31 -62 -35 -49 -53 8 -11 14 -35 14 -53 0 -52 19 -83 51 -83 15 0 31
5 34 10 14 23 33 7 44 -36 15 -57 8 -80 -30 -99 -72 -38 -74 -107 -6 -206 37
-54 40 -62 31 -96 -5 -22 -16 -39 -25 -41 -18 -3 -69 38 -69 57 0 6 -13 11
-29 11 -25 0 -33 -7 -50 -43 -12 -24 -21 -54 -21 -68 0 -13 -7 -35 -16 -48
-12 -16 -15 -35 -11 -66 4 -29 2 -48 -8 -61 -8 -10 -15 -27 -15 -36 0 -10 -11
-25 -25 -34 -14 -9 -25 -23 -25 -32 0 -26 -30 -53 -49 -42 -14 7 -17 27 -18
119 -1 61 -5 117 -10 123 -10 17 -36 -85 -35 -137 4 -138 11 -200 24 -209 8
-6 20 -32 27 -58 11 -38 11 -54 1 -77 -14 -34 -7 -51 20 -51 29 0 41 -33 37
-99 -2 -33 0 -66 4 -72 9 -16 23 113 15 145 -7 27 16 58 37 50 23 -9 78 -159
79 -213 0 -39 6 -60 27 -88 34 -48 42 -66 53 -128 21 -114 21 -139 -2 -163
l-22 -23 -34 38 c-18 21 -38 55 -44 75 -6 20 -15 40 -20 43 -5 3 -16 30 -25
61 l-16 56 -25 -27 c-27 -30 -30 -58 -10 -112 8 -21 17 -60 21 -88 4 -27 15
-64 26 -81 10 -17 22 -52 25 -78 7 -50 12 -55 59 -71 26 -9 30 -14 27 -41 -3
-27 0 -32 26 -37 21 -4 33 -16 47 -46 10 -22 26 -48 36 -57 11 -10 19 -24 19
-33 0 -9 5 -33 11 -54 12 -44 32 -45 39 -2 6 35 25 43 33 15 6 -25 -10 -90
-23 -90 -19 0 -9 -50 15 -76 14 -15 25 -32 25 -38 0 -6 9 -17 21 -24 22 -14
22 -40 4 -115 -5 -19 -3 -33 7 -45 9 -9 18 -29 22 -44 3 -14 24 -46 46 -70 22
-23 51 -54 63 -68 13 -14 26 -33 30 -42 3 -10 13 -18 21 -18 9 0 20 -8 25 -18
5 -10 22 -24 38 -32 15 -8 34 -23 41 -33 18 -23 32 -13 32 23 0 19 -7 33 -20
40 -11 6 -20 19 -20 30 0 10 -6 23 -14 27 -7 4 -21 22 -30 40 -8 17 -25 34
-36 38 -11 3 -20 15 -20 26 0 10 -7 19 -15 19 -8 0 -18 12 -21 28 -8 33 -32
62 -62 73 -29 11 -37 34 -24 65 14 30 30 30 76 -1 20 -14 46 -25 56 -25 28 0
67 -46 101 -117 17 -35 35 -63 40 -63 5 0 9 -5 9 -12 0 -7 18 -30 40 -53 35
-35 41 -48 49 -110 14 -96 15 -92 -24 -99 -40 -8 -46 -29 -13 -47 13 -7 29
-18 36 -26 7 -7 20 -13 27 -13 8 0 17 -9 20 -20 3 -11 10 -20 14 -20 5 0 22
-13 39 -30 18 -16 41 -30 52 -30 21 0 23 -3 35 -55 7 -28 8 -28 15 -9 15 39
60 42 60 3 0 -17 -6 -21 -26 -18 -15 2 -21 -26 -11 -49 19 -41 189 -205 240
-232 47 -25 87 -53 134 -97 13 -13 28 -23 33 -23 5 0 11 -8 14 -18 6 -18 36
-29 140 -51 21 -5 43 -16 48 -25 13 -22 71 -21 92 3 16 17 15 19 -8 35 -14 9
-30 16 -36 16 -5 0 -10 4 -10 9 0 5 -11 12 -25 15 -13 3 -30 16 -36 28 -7 13
-18 29 -26 36 -17 18 -17 32 4 72 11 24 13 35 5 38 -18 6 -26 71 -12 96 10 20
8 28 -14 61 -14 21 -26 44 -26 51 0 7 -13 22 -28 32 -15 11 -34 32 -42 46 -8
16 -22 26 -36 26 -14 0 -24 8 -28 23 -3 12 -14 33 -24 46 l-19 23 -26 -26
c-23 -22 -25 -31 -16 -47 19 -36 28 -120 13 -126 -19 -7 -110 99 -108 127 1 8
2 21 3 28 0 7 13 17 29 23 l27 11 -30 12 c-35 13 -71 37 -122 83 -20 18 -40
33 -45 33 -6 0 -32 23 -59 50 -35 36 -49 58 -49 78 0 15 -6 37 -14 48 -14 19
-12 21 22 33 20 7 52 20 70 28 41 19 70 9 130 -47 49 -46 52 -47 52 -21 0 38
11 51 45 51 46 0 62 51 30 97 -16 23 -7 38 30 45 17 3 20 12 23 61 l3 58 -36
15 c-29 12 -34 18 -25 28 6 8 22 17 35 20 29 7 33 26 6 26 -41 0 -61 31 -64
98 -2 61 -1 65 31 93 28 25 39 29 65 24 18 -4 43 -17 57 -29 33 -29 107 -76
119 -76 15 0 31 -34 31 -64 0 -14 -9 -31 -21 -39 -29 -21 -10 -29 59 -28 60 1
122 -14 122 -30 0 -5 21 -19 48 -31 27 -14 48 -31 51 -42 1 -11 19 -35 38 -55
20 -20 42 -46 51 -59 13 -20 20 -22 61 -17 69 10 80 14 59 26 -10 5 -27 30
-38 56 -11 25 -23 44 -26 41 -8 -9 -87 12 -104 27 -8 7 -24 15 -35 17 -11 2
-22 14 -25 28 -4 17 -16 28 -40 36 -29 9 -36 17 -38 43 -2 18 -9 31 -17 31
-24 0 -35 32 -20 60 9 17 10 30 4 42 -7 12 -5 27 5 45 22 44 24 78 4 77 -10 0
-37 -1 -60 -2 -33 -2 -39 -5 -30 -14 20 -20 15 -59 -8 -65 -11 -3 -20 -9 -20
-14 0 -5 -7 -9 -15 -9 -10 0 -15 10 -15 28 0 15 -7 37 -15 49 -14 21 -14 26 5
64 19 36 20 43 7 57 -12 13 -37 136 -37 179 0 3 14 3 30 1 17 -3 30 0 30 6 0
5 12 27 26 47 16 23 30 64 38 111 12 69 32 118 48 118 17 0 50 72 44 96 -10
39 14 94 44 101 43 10 51 22 33 49 -13 21 -14 29 -3 49 15 28 41 32 60 10 7
-8 19 -15 27 -15 7 0 16 7 19 15 12 29 41 16 58 -25 9 -22 16 -45 16 -51 0 -6
14 -32 31 -57 28 -42 30 -50 20 -77 -16 -44 -14 -55 10 -55 16 0 20 -5 17 -26
-3 -23 2 -29 37 -41 22 -7 55 -20 73 -29 33 -15 35 -15 60 9 15 14 37 28 50
32 25 7 42 41 42 80 0 14 13 39 29 57 29 33 29 33 51 13 19 -17 23 -18 43 -5
17 11 59 15 172 15 83 0 156 4 164 9 19 12 89 -13 96 -36 4 -10 10 -18 15 -18
5 0 14 -26 20 -57 22 -115 32 -141 52 -135 17 4 19 1 13 -29 -6 -33 -5 -35 37
-49 41 -15 66 -50 35 -50 -16 0 -30 -24 -20 -34 3 -3 17 -3 29 0 20 5 24 2 24
-16 0 -12 -7 -28 -15 -37 -12 -12 -14 -26 -9 -62 8 -52 8 -58 -1 -86 -6 -19 0
-22 54 -33 63 -13 81 -29 81 -74 0 -15 10 -30 29 -41 27 -16 29 -16 51 3 13
11 27 20 32 20 5 0 13 12 18 26 8 21 15 25 33 20 12 -3 37 -6 54 -6 26 0 34
-5 39 -24 3 -14 1 -40 -5 -59 -6 -19 -9 -41 -5 -50 6 -17 56 -43 138 -72 27
-10 57 -26 67 -36 11 -11 26 -19 34 -19 8 0 21 -16 29 -35 25 -58 100 -74 141
-29 13 14 28 23 33 20 6 -3 12 7 14 23 5 35 -21 48 -101 50 -30 1 -62 7 -70
15 -9 7 -25 17 -36 20 -27 9 -85 63 -85 79 0 19 35 89 43 88 11 -2 97 50 97
59 0 8 65 85 93 109 26 23 21 35 -20 55 -36 18 -37 19 -15 27 12 5 22 15 22
24 0 18 -26 20 -37 2 -11 -17 -82 -62 -113 -72 -14 -4 -33 -16 -43 -26 -36
-38 -127 -12 -127 36 0 8 -9 29 -20 47 -11 18 -20 42 -20 54 0 11 -9 29 -20
39 -11 10 -20 28 -20 41 0 12 -11 32 -25 45 -13 13 -25 32 -25 42 0 10 -12 30
-27 45 -14 14 -29 40 -33 57 -5 25 -10 30 -32 27 -19 -2 -27 2 -31 19 -3 12
-2 29 2 37 5 9 3 26 -5 41 -32 60 -16 86 60 100 62 11 76 9 76 -15 0 -8 4 -14
9 -14 5 0 15 -2 23 -5 7 -3 37 17 67 45 30 28 59 54 66 58 7 4 16 17 19 29 8
25 -5 33 -91 56 -37 9 -45 9 -62 -8 -20 -18 -21 -17 -36 20 -14 31 -14 48 -5
113 7 43 15 82 20 87 4 6 13 45 20 88 9 57 18 81 31 88 24 13 24 45 0 58 -25
14 -32 46 -16 68 12 15 17 16 34 6 29 -18 28 -18 36 30 11 72 24 94 58 101 40
8 87 49 87 75 0 11 9 22 20 26 11 3 20 15 20 25 0 11 -9 24 -20 30 -15 8 -20
21 -20 50 0 35 3 40 33 49 51 17 175 -27 209 -73 3 -6 21 -17 39 -25 39 -19
63 -76 38 -92 -23 -15 -142 -11 -166 6 -11 8 -38 17 -60 21 -35 5 -41 3 -46
-15 -3 -12 -18 -26 -35 -32 -24 -8 -30 -16 -28 -35 2 -13 6 -27 9 -31 11 -10
8 -51 -3 -58 -6 -4 -4 -17 5 -35 8 -16 15 -52 15 -80 0 -36 4 -50 14 -50 15 0
31 63 21 80 -3 5 0 45 7 89 10 68 16 84 39 100 l27 20 16 -24 c19 -29 41 -31
110 -10 27 8 54 15 60 15 13 0 72 -54 79 -72 3 -10 9 -9 24 5 11 9 24 17 29
17 14 0 64 53 64 67 0 7 9 18 20 26 25 17 16 27 -25 27 -19 0 -39 8 -50 20
-10 11 -24 20 -32 20 -7 0 -13 4 -13 8 0 5 -17 16 -37 26 -21 10 -43 26 -51
37 -7 10 -19 19 -26 19 -7 0 -22 11 -35 23 -12 13 -69 48 -127 77 l-105 53
-20 -22 c-14 -15 -27 -20 -42 -16 -12 4 -30 9 -39 11 -33 10 -18 23 32 30 57
8 63 17 20 33 -16 5 -30 15 -30 22 0 7 -7 20 -15 29 -9 9 -21 57 -29 106 l-13
89 -17 -40 c-10 -23 -20 -35 -24 -29 -4 6 -18 15 -32 19 -25 8 -50 28 -50 41
0 4 -21 31 -46 60 -47 56 -55 92 -19 86 11 -2 43 -14 72 -28 45 -21 54 -30 64
-64 12 -40 13 -40 31 -21 20 22 24 47 8 53 -6 2 -13 26 -17 55 l-6 52 -24 -16
c-22 -15 -27 -15 -59 0 -19 9 -34 21 -34 26 0 15 30 41 46 41 8 0 14 4 14 10
0 17 -44 21 -85 7 -39 -13 -44 -21 -61 -84 -5 -21 -33 -15 -79 17 -24 17 -48
30 -53 30 -5 0 -14 11 -20 26 -7 14 -26 30 -42 36 -26 9 -30 15 -30 48 0 22 5
42 11 45 7 5 5 13 -5 24 -41 43 -66 75 -68 85 -3 26 -5 32 -13 56 -7 23 -31
49 -46 50 -3 0 -14 -7 -25 -15z m222 -456 c10 -17 -13 -36 -27 -22 -12 12 -4
33 11 33 5 0 12 -5 16 -11z m-242 -51 c8 -13 6 -22 -11 -40 -11 -13 -23 -31
-25 -41 -4 -21 -21 -19 -25 3 -1 8 -5 27 -9 42 -3 15 -4 35 0 44 8 20 55 15
70 -8z m-1621 -120 c8 -12 7 -24 -1 -43 -10 -21 -18 -26 -40 -23 -24 3 -27 7
-24 33 7 54 41 71 65 33z m2124 -30 c-3 -8 -6 -5 -6 6 -1 11 2 17 5 13 3 -3 4
-12 1 -19z m-3197 -43 c0 -14 -4 -25 -10 -25 -5 0 -10 11 -10 25 0 14 5 25 10
25 6 0 10 -11 10 -25z m3254 3 c-1 -10 8 -19 23 -23 26 -6 23 -25 -4 -25 -21
0 -63 39 -63 57 0 9 8 13 23 11 13 -2 22 -10 21 -20z m-2376 -47 c2 -23 0 -32
-9 -29 -20 7 -33 34 -26 52 11 27 32 13 35 -23z m2044 -42 l24 -45 -35 -11
c-46 -15 -58 -5 -67 54 -6 38 -4 49 12 60 22 16 32 8 66 -58z m230 -21 c-9 -9
-12 -4 -11 23 0 32 1 33 11 11 8 -17 8 -26 0 -34z m-39 -25 c-7 -2 -21 -2 -30
0 -10 3 -4 5 12 5 17 0 24 -2 18 -5z m-1653 -33 c0 -5 -4 -10 -10 -10 -5 0
-10 5 -10 10 0 6 5 10 10 10 6 0 10 -4 10 -10z m-452 -78 c72 -66 70 -84 -12
-100 -35 -6 -70 -14 -77 -17 -8 -3 -29 4 -46 15 -29 18 -33 25 -33 65 0 50 15
64 48 46 17 -9 23 -6 36 14 9 14 20 25 24 25 4 0 31 -22 60 -48z m1652 -27 c4
-64 -9 -75 -30 -25 -10 25 -10 36 -1 58 10 21 14 24 21 12 4 -8 9 -28 10 -45z
m160 0 l31 -45 -28 -11 c-15 -5 -41 -17 -57 -25 -16 -8 -32 -14 -36 -14 -11 0
-19 51 -13 81 4 22 44 58 65 59 4 0 21 -20 38 -45z m-1391 -11 c10 -22 9 -25
-6 -22 -10 2 -19 13 -21 26 -5 30 12 28 27 -4z m1899 -83 c26 -22 29 -51 6
-51 -21 0 -66 48 -59 61 9 14 30 11 53 -10z m-2538 -28 c18 -22 11 -78 -9 -78
-16 0 -27 -18 -35 -56 -5 -21 -13 -28 -40 -33 -44 -8 -62 -1 -76 34 -9 22 -9
33 1 52 16 31 28 38 66 38 33 0 63 22 63 46 0 19 12 18 30 -3z m104 -76 c21
-28 21 -29 2 -43 -24 -17 -56 -18 -78 0 -23 17 -23 25 4 53 27 29 45 26 72
-10z m400 -79 c3 -13 6 -44 6 -70 0 -28 10 -67 25 -100 14 -29 25 -60 25 -69
0 -9 -16 -37 -36 -63 -30 -40 -39 -45 -62 -40 -40 9 -57 32 -76 100 -21 80
-21 133 1 141 28 11 62 56 63 84 0 14 3 29 7 32 14 15 41 6 47 -15z m-514 -33
c0 -8 -7 -15 -15 -15 -8 0 -15 7 -15 15 0 8 7 15 15 15 8 0 15 -7 15 -15z
m149 -92 c-13 -15 -45 -17 -54 -4 -3 6 5 19 17 31 21 19 24 20 35 4 9 -13 10
-21 2 -31z m1679 -191 c2 -7 -3 -12 -12 -12 -9 0 -16 7 -16 16 0 17 22 14 28
-4z m-88 -81 c0 -6 -4 -13 -10 -16 -5 -3 -10 1 -10 9 0 9 5 16 10 16 6 0 10
-4 10 -9z m-818 -252 c-4 -39 -15 -54 -32 -44 -10 6 -6 56 7 78 12 20 28 -2
25 -34z m-182 -19 c0 -5 -4 -10 -10 -10 -5 0 -10 5 -10 10 0 6 5 10 10 10 6 0
10 -4 10 -10z m1154 -23 c11 -8 17 -23 14 -38 -4 -32 -40 -37 -68 -9 -21 21
-21 23 -4 41 20 22 34 24 58 6z m-1114 -32 c0 -8 -4 -15 -9 -15 -5 0 -11 7
-15 15 -3 9 0 15 9 15 8 0 15 -7 15 -15z m-790 -35 c0 -22 0 -43 1 -47 0 -4
-5 -9 -11 -11 -8 -3 -9 7 -5 31 4 21 3 37 -4 42 -12 7 -5 25 10 25 5 0 9 -18
9 -40z m2252 28 c-9 -9 -15 -9 -24 0 -9 9 -7 12 12 12 19 0 21 -3 12 -12z
m-294 -87 c47 -43 40 -86 -10 -60 -30 16 -38 28 -38 62 0 34 8 34 48 -2z m152
-26 c14 -8 32 -17 41 -21 12 -4 19 -23 24 -59 10 -80 -19 -119 -59 -80 -8 8
-18 15 -23 15 -12 0 -73 81 -73 96 0 57 39 79 90 49z m-40 -194 c0 -6 -4 -13
-10 -16 -5 -3 -10 1 -10 9 0 9 5 16 10 16 6 0 10 -4 10 -9z m239 -84 c13 -16
5 -27 -21 -27 -11 0 -18 7 -18 20 0 23 22 27 39 7z m-199 -12 c0 -8 -4 -15
-10 -15 -5 0 -10 7 -10 15 0 8 5 15 10 15 6 0 10 -7 10 -15z m193 -105 c-3
-11 -9 -20 -14 -20 -14 0 -22 27 -15 46 9 24 35 -1 29 -26z m-11 -100 c23 -22
49 -40 57 -40 19 0 81 -70 81 -92 0 -16 -9 -18 -72 -17 -40 1 -88 8 -105 16
-29 12 -33 19 -35 56 -3 81 3 117 21 117 5 0 29 -18 53 -40z m278 -164 c0 -8
-4 -18 -10 -21 -5 -3 -10 -4 -10 -1 0 2 -3 11 -6 20 -4 11 -1 16 10 16 9 0 16
-6 16 -14z m133 7 c4 -4 -6 -12 -23 -19 -24 -10 -31 -21 -36 -54 -6 -34 -14
-46 -45 -67 -44 -29 -59 -24 -59 20 0 36 43 87 73 87 10 0 21 9 24 20 4 14 14
20 32 20 15 0 31 -3 34 -7z m-2242 -46 c-13 -13 -26 -3 -16 12 3 6 11 8 17 5
6 -4 6 -10 -1 -17z m1849 3 c0 -5 -7 -10 -16 -10 -8 0 -12 5 -9 10 3 6 10 10
16 10 5 0 9 -4 9 -10z m-2070 -509 c0 -6 -4 -13 -10 -16 -5 -3 -10 1 -10 9 0
9 5 16 10 16 6 0 10 -4 10 -9z m-774 -50 c-10 -16 -36 -13 -36 3 0 17 21 27
34 16 4 -5 5 -13 2 -19z m44 -46 c0 -9 -6 -12 -15 -9 -8 4 -15 10 -15 15 0 5
7 9 15 9 8 0 15 -7 15 -15z m548 -458 c4 -30 -17 -37 -38 -12 -10 12 -10 18 0
30 18 22 34 14 38 -18z m375 -184 c-7 -2 -19 -2 -25 0 -7 3 -2 5 12 5 14 0 19
-2 13 -5z m-5 -174 c-2 -6 -8 -10 -13 -10 -5 0 -11 4 -13 10 -2 6 4 11 13 11
9 0 15 -5 13 -11z"/>
<path d="M2900 6335 c0 -8 -7 -15 -15 -15 -8 0 -15 -4 -15 -10 0 -5 11 -10 25
-10 20 0 25 5 25 25 0 14 -4 25 -10 25 -5 0 -10 -7 -10 -15z"/>
<path d="M2137 6304 c-3 -3 -3 -12 -1 -19 3 -8 -3 -18 -14 -24 -22 -12 -32
-48 -21 -78 6 -17 2 -23 -22 -33 -29 -12 -32 -19 -44 -92 -3 -21 -12 -43 -19
-51 -24 -23 -30 -76 -11 -96 11 -13 14 -27 9 -45 l-6 -26 -24 25 c-15 16 -25
21 -30 14 -3 -6 -9 -61 -11 -123 -3 -67 -10 -117 -18 -126 -19 -23 -26 -130
-11 -173 17 -52 28 -60 53 -42 19 13 20 22 17 132 -2 106 0 124 23 182 14 36
29 72 34 80 17 32 39 94 39 113 0 28 46 91 74 101 4 1 -1 20 -13 40 -26 47
-26 62 -1 94 11 14 20 41 20 59 0 19 5 34 10 34 6 0 10 14 10 30 0 22 -5 30
-18 30 -10 0 -21 -3 -25 -6z"/>
<path d="M4880 6260 c0 -7 14 -8 38 -4 51 9 53 14 4 14 -23 0 -42 -5 -42 -10z"/>
<path d="M8078 6249 c-10 -5 -18 -19 -18 -29 0 -24 -14 -33 -75 -45 -43 -9
-50 -14 -56 -40 -11 -51 -29 -86 -39 -80 -5 3 -10 15 -10 26 0 10 -7 19 -15
19 -8 0 -22 12 -32 26 -10 14 -28 35 -40 47 -13 11 -23 29 -23 38 0 10 -5 21
-12 25 -17 11 -3 -100 16 -128 9 -12 16 -36 16 -53 0 -44 20 -66 65 -71 37 -5
41 -3 57 25 10 17 25 35 35 39 47 20 84 49 89 70 8 31 42 53 71 46 24 -6 23
-8 27 71 1 23 -29 31 -56 14z m-208 -230 c0 -24 -23 -21 -28 4 -2 10 3 17 12
17 10 0 16 -9 16 -21z"/>
<path d="M6560 6220 c0 -5 7 -10 15 -10 8 0 15 5 15 10 0 6 -7 10 -15 10 -8 0
-15 -4 -15 -10z"/>
<path d="M7207 6193 c-4 -3 -7 -17 -7 -30 0 -28 23 -27 28 1 4 20 -11 40 -21
29z"/>
<path d="M2458 6161 c8 -5 17 -23 21 -41 8 -40 26 -49 41 -21 15 30 -13 71
-49 71 -18 0 -22 -3 -13 -9z"/>
<path d="M2246 6119 c-39 -44 -23 -74 25 -49 12 7 19 21 19 40 0 41 -13 44
-44 9z"/>
<path d="M2417 6133 c-14 -13 -7 -53 8 -53 12 0 14 7 9 28 -8 33 -9 34 -17 25z"/>
<path d="M5494 6039 c-3 -6 0 -15 7 -20 22 -14 29 -11 29 11 0 21 -24 27 -36
9z"/>
<path d="M6634 6013 c-8 -14 -6 -29 9 -65 16 -40 22 -46 34 -36 14 11 13 47
-3 101 -7 22 -26 22 -40 0z"/>
<path d="M7539 5980 c-28 -28 -37 -31 -68 -26 -20 3 -43 15 -53 26 -23 28 -32
25 -46 -13 -16 -44 -15 -69 3 -93 19 -25 19 -60 -1 -68 -9 -3 -29 -6 -45 -6
-16 0 -29 -5 -29 -11 0 -6 -7 -9 -15 -5 -21 8 -45 -3 -45 -21 0 -34 39 -71 83
-77 56 -9 71 -2 97 41 l21 36 25 -24 c22 -21 26 -21 40 -7 14 14 14 19 0 52
-8 20 -20 36 -26 36 -7 0 -10 15 -8 38 2 31 6 36 23 34 57 -9 136 -14 150 -8
14 5 14 9 -1 38 -9 18 -29 46 -45 62 l-28 29 -32 -33z m-208 -215 c-1 -15 -24
-12 -29 3 -3 9 2 13 12 10 10 -1 17 -7 17 -13z"/>
<path d="M2596 5991 c-4 -5 -9 -29 -12 -54 -8 -57 9 -71 41 -31 27 34 36 69
22 83 -13 13 -44 14 -51 2z"/>
<path d="M6745 5966 c-17 -40 -12 -60 26 -99 31 -30 38 -58 28 -102 -4 -16 -9
-59 -11 -94 l-4 -64 38 -16 c21 -9 38 -23 38 -31 0 -13 1 -13 10 0 6 10 10 11
10 3 0 -7 9 -13 20 -13 11 0 20 -7 20 -15 0 -8 6 -15 14 -15 18 0 10 88 -11
112 -9 10 -14 38 -14 72 0 39 -6 62 -19 79 -17 21 -17 26 -5 44 13 19 11 23
-25 52 -22 18 -40 37 -40 44 0 7 -14 27 -30 46 l-30 33 -15 -36z"/>
<path d="M8212 5950 c-6 -11 -12 -42 -12 -70 0 -60 -19 -74 -55 -40 -24 23
-65 21 -65 -3 0 -7 -3 -22 -6 -35 -4 -13 -3 -22 2 -21 22 4 34 -2 34 -16 0 -8
9 -15 19 -15 11 0 26 -9 35 -21 21 -30 50 -21 54 18 2 17 9 36 16 42 9 8 12
27 8 61 -3 36 0 57 13 76 18 29 18 29 -10 38 -14 4 -24 0 -33 -14z"/>
<path d="M2893 5948 c-14 -7 -23 -20 -23 -35 0 -19 5 -23 29 -23 16 0 37 7 45
16 17 17 21 44 7 44 -5 0 -15 2 -23 4 -7 3 -23 0 -35 -6z"/>
<path d="M2742 5773 c-13 -3 -31 -17 -40 -32 -12 -19 -22 -26 -32 -21 -8 4
-30 14 -48 23 -48 24 -70 22 -78 -8 -3 -14 -4 -32 0 -40 4 -11 -3 -15 -27 -16
-18 -1 -38 -1 -44 0 -19 3 -16 -7 6 -18 20 -11 81 3 81 19 0 5 9 12 21 15 26
9 59 -20 59 -52 0 -15 4 -22 11 -18 6 4 8 12 6 19 -7 18 11 56 27 56 7 0 21
-11 30 -25 14 -22 21 -24 68 -19 98 10 98 10 87 46 -9 33 -47 71 -61 62 -4 -3
-8 0 -8 5 0 11 -16 12 -58 4z"/>
<path d="M7885 5762 c-20 -20 28 -40 51 -21 24 19 28 2 9 -37 -15 -33 -16 -39
-3 -48 8 -6 22 -26 32 -43 10 -21 24 -33 36 -33 11 0 20 1 20 3 13 147 12 177
-6 177 -11 1 -45 2 -76 4 -32 1 -60 1 -63 -2z"/>
<path d="M7560 5710 c0 -5 20 -10 45 -10 25 0 45 5 45 10 0 6 -20 10 -45 10
-25 0 -45 -4 -45 -10z"/>
<path d="M4800 5703 c0 -6 -3 -20 -7 -30 -7 -17 -6 -17 11 0 14 14 16 21 7 30
-8 8 -11 8 -11 0z"/>
<path d="M7514 5637 c-6 -18 12 -57 27 -57 15 0 7 63 -8 68 -7 2 -16 -3 -19
-11z"/>
<path d="M3495 5630 c-3 -5 1 -10 9 -10 9 0 16 5 16 10 0 6 -4 10 -9 10 -6 0
-13 -4 -16 -10z"/>
<path d="M2670 5576 c0 -19 4 -37 10 -41 6 -3 5 -15 -2 -31 -8 -17 -8 -28 -1
-35 7 -7 14 -1 23 20 7 17 16 28 20 26 22 -14 19 21 -5 56 -34 48 -45 49 -45
5z"/>
<path d="M2545 5498 c-4 -21 -4 -45 -1 -54 6 -15 8 -15 26 1 23 21 26 41 6 52
-7 4 -15 15 -18 23 -3 9 -9 -1 -13 -22z"/>
<path d="M6835 5499 c-4 -11 -4 -23 -2 -26 9 -8 27 7 27 22 0 23 -18 27 -25 4z"/>
<path d="M6699 5483 c-21 -56 6 -81 34 -32 13 24 15 35 6 45 -17 21 -28 17
-40 -13z"/>
<path d="M8075 5500 c-4 -6 -3 -16 3 -22 13 -13 23 4 13 21 -7 10 -10 10 -16
1z"/>
<path d="M7964 5442 c-18 -2 -22 -12 -28 -55 -8 -72 -7 -129 3 -145 12 -20 21
20 21 102 0 54 4 72 17 82 21 15 16 21 -13 16z"/>
<path d="M1876 5394 c-13 -13 -16 -44 -15 -187 0 -105 4 -164 9 -152 5 11 9
32 9 47 1 16 9 33 21 40 24 15 25 31 4 49 -14 12 -14 14 1 25 23 17 42 136 27
169 -13 29 -34 32 -56 9z"/>
<path d="M3406 5345 c4 -8 8 -15 10 -15 2 0 4 7 4 15 0 8 -4 15 -10 15 -5 0
-7 -7 -4 -15z"/>
<path d="M4640 5313 c0 -22 2 -25 10 -13 13 20 13 40 0 40 -5 0 -10 -12 -10
-27z"/>
<path d="M4560 5290 c0 -39 51 -69 63 -36 5 14 -37 66 -53 66 -6 0 -10 -13
-10 -30z"/>
<path d="M8143 5253 c-7 -2 -13 -13 -13 -22 0 -14 -6 -17 -24 -14 -19 4 -24 0
-28 -21 -3 -14 -3 -37 0 -51 4 -22 10 -25 43 -25 47 0 61 21 57 87 -3 46 -11
56 -35 46z"/>
<path d="M4443 5179 c-28 -10 -29 -21 -5 -42 27 -25 42 -21 42 12 0 36 -8 41
-37 30z"/>
<path d="M7918 5089 c-10 -5 -18 -18 -18 -28 0 -12 -10 -21 -25 -25 -14 -4
-25 -14 -26 -24 0 -9 -2 -36 -2 -59 -1 -26 -11 -53 -27 -75 -59 -80 -90 -132
-90 -152 0 -22 -27 -96 -47 -131 -11 -19 -12 -19 -36 7 -14 15 -38 30 -53 34
-39 10 -386 -16 -404 -30 -34 -25 -78 -44 -130 -55 -60 -12 -136 -40 -215 -77
-28 -13 -58 -24 -67 -24 -8 0 -29 -7 -44 -15 -37 -19 -64 -19 -92 1 -18 12
-23 13 -27 2 -9 -23 -45 -140 -45 -144 0 -3 11 -2 24 2 20 5 27 0 39 -23 17
-33 27 -129 28 -267 1 -93 -1 -101 -23 -118 -12 -9 -39 -18 -59 -18 -40 0 -76
-21 -65 -38 4 -7 20 -12 35 -12 32 0 45 -13 55 -52 5 -22 1 -31 -18 -43 -44
-29 -38 -89 19 -174 13 -19 22 -38 19 -43 -7 -11 -72 -10 -79 2 -3 6 -14 10
-24 10 -14 0 -17 -6 -13 -30 2 -16 10 -30 17 -30 20 0 67 -68 63 -92 -2 -16
-12 -24 -37 -29 -18 -4 -42 -16 -54 -27 l-20 -20 22 -31 c22 -31 23 -31 117
-31 67 0 104 5 125 16 17 8 37 13 44 10 8 -3 19 2 25 10 7 8 18 14 26 14 25 0
84 -42 84 -60 0 -28 15 -32 40 -10 13 11 35 20 49 21 14 0 37 2 51 3 14 1 39
3 57 4 62 4 90 73 36 87 -32 8 -43 21 -43 54 0 33 40 110 61 116 9 3 34 19 54
35 26 20 44 28 59 24 26 -6 51 18 43 40 -10 25 20 90 51 111 16 11 47 32 68
47 37 25 42 26 92 16 41 -8 56 -17 67 -37 7 -15 24 -33 38 -40 22 -12 27 -10
50 13 20 19 36 26 67 26 l40 0 0 -40 c0 -33 3 -40 20 -40 27 0 40 30 40 94 0
42 -4 57 -17 65 -10 5 -29 37 -42 70 -23 59 -23 62 -6 81 10 11 15 26 11 36
-4 11 2 26 15 41 25 26 69 31 69 8 0 -16 44 -39 91 -49 14 -3 31 -17 37 -31
15 -32 26 -32 40 0 7 14 32 34 61 47 28 13 55 33 61 47 6 13 28 42 50 65 117
121 140 149 146 171 3 13 12 26 20 29 13 5 21 46 9 46 -16 0 -65 -32 -65 -43
0 -7 -30 -41 -66 -77 -36 -36 -72 -76 -79 -90 -16 -30 -55 -53 -81 -48 -24 4
-46 75 -32 102 6 10 12 36 14 56 6 49 -13 62 -38 26 -23 -31 -38 -26 -38 14 0
31 -42 119 -77 163 -13 16 -26 39 -29 53 -3 13 -19 49 -35 79 -16 31 -29 68
-29 82 0 38 37 93 64 93 31 0 46 19 46 56 0 41 -17 87 -30 79 -15 -9 -60 6
-60 20 0 8 15 19 33 26 33 12 97 81 97 104 0 9 -53 38 -64 35 -1 0 -9 -5 -18
-11z m-1143 -789 c0 -7 -6 -15 -12 -17 -8 -3 -13 4 -13 17 0 13 5 20 13 18 6
-3 12 -11 12 -18z m810 -10 c-3 -5 -10 -10 -16 -10 -5 0 -9 5 -9 10 0 6 7 10
16 10 8 0 12 -4 9 -10z m383 -30 c7 -11 21 -20 32 -20 13 0 20 -7 20 -18 0
-10 9 -35 20 -57 11 -22 20 -45 20 -52 0 -14 -46 -36 -59 -28 -4 2 -24 5 -44
7 -21 1 -37 5 -37 8 -7 70 -4 121 6 148 15 37 24 40 42 12z m-785 -32 c7 -26
1 -38 -19 -38 -9 0 -14 11 -14 30 0 35 25 41 33 8z m417 -63 c0 -8 -7 -15 -15
-15 -16 0 -20 12 -8 23 11 12 23 8 23 -8z m130 -191 c0 -14 -12 -19 -23 -8 -9
9 4 35 14 28 5 -3 9 -12 9 -20z m-1010 -94 c0 -5 -2 -10 -4 -10 -3 0 -8 5 -11
10 -3 6 -1 10 4 10 6 0 11 -4 11 -10z m422 -121 c-2 -17 -12 -33 -21 -37 -9
-3 -22 -14 -29 -24 -17 -23 -32 -14 -32 18 0 32 59 98 75 84 6 -5 10 -24 7
-41z m155 -14 c-8 -5 -19 -20 -26 -32 -6 -13 -18 -23 -27 -23 -8 0 -20 -11
-26 -25 -6 -13 -20 -27 -30 -31 -10 -3 -27 -15 -37 -26 -15 -15 -26 -18 -50
-13 -36 8 -41 31 -8 41 12 3 30 14 40 22 10 9 29 16 43 17 17 0 30 9 42 30 42
77 39 74 67 62 19 -9 22 -14 12 -22z m-617 -130 c0 -8 -9 -15 -20 -15 -13 0
-18 5 -14 15 4 8 12 15 20 15 8 0 14 -7 14 -15z m-20 -104 c0 -4 16 -11 35
-14 34 -6 47 -14 85 -51 30 -30 26 -68 -9 -89 -21 -12 -31 -27 -33 -49 -4 -46
-24 -54 -97 -37 -79 17 -80 35 -3 72 32 15 64 27 70 27 7 0 12 7 12 16 0 13
-7 15 -30 10 -26 -5 -32 -2 -40 20 -13 33 -13 104 0 104 6 0 10 -4 10 -9z
m338 -87 c-5 -28 -28 -29 -28 -1 0 13 3 27 7 31 10 10 25 -10 21 -30z"/>
<path d="M8400 5070 c0 -5 11 -10 25 -10 14 0 25 5 25 10 0 6 -11 10 -25 10
-14 0 -25 -4 -25 -10z"/>
<path d="M6514 4946 c-8 -21 3 -49 16 -41 5 3 10 15 10 25 0 25 -18 36 -26 16z"/>
<path d="M8575 4859 c-4 -13 -16 -34 -28 -46 -11 -12 -26 -44 -32 -70 -14 -51
-18 -53 -74 -31 -26 10 -35 10 -38 1 -2 -7 -17 -31 -33 -55 -17 -24 -30 -55
-30 -69 0 -14 -7 -34 -15 -45 -19 -26 -19 -31 6 -44 16 -9 26 -8 44 4 14 9 31
16 40 16 8 0 15 5 15 10 0 6 -7 10 -15 10 -17 0 -19 12 -6 38 5 9 14 30 21 47
l12 30 19 -24 c10 -13 19 -29 19 -37 0 -25 21 -15 31 16 6 17 14 30 18 30 3 0
15 17 26 38 11 20 25 41 32 45 8 5 12 31 11 72 -1 72 -12 101 -23 64z"/>
<path d="M8758 4690 c-5 -36 7 -50 16 -17 8 31 7 47 -3 47 -5 0 -11 -14 -13
-30z"/>
<path d="M8850 4556 c0 -72 10 -88 30 -50 11 19 11 27 2 36 -7 7 -12 24 -12
39 0 15 -4 31 -10 34 -6 4 -10 -18 -10 -59z"/>
<path d="M8675 4548 c-52 -17 -98 -42 -109 -60 -7 -12 -3 -24 22 -52 18 -20
32 -46 32 -57 0 -12 9 -34 20 -49 16 -23 21 -46 22 -110 0 -55 4 -80 12 -77 6
2 12 19 13 38 6 99 10 131 20 137 6 4 11 39 11 77 0 39 5 83 11 98 8 20 8 34
1 48 -12 21 -12 21 -55 7z"/>
<path d="M8117 4444 c-3 -11 -7 -41 -9 -68 -4 -60 15 -72 36 -22 8 19 26 42
41 52 22 14 24 19 13 30 -7 8 -27 16 -45 20 -25 5 -32 2 -36 -12z"/>
<path d="M8762 4160 c0 -14 2 -19 5 -12 2 6 2 18 0 25 -3 6 -5 1 -5 -13z"/>
<path d="M8622 4095 c-14 -30 -16 -72 -4 -79 5 -3 19 8 30 24 18 23 20 34 12
55 -12 32 -24 32 -38 0z"/>
<path d="M4282 3914 c2 -22 8 -38 13 -36 15 3 12 65 -3 70 -10 3 -13 -6 -10
-34z"/>
<path d="M6340 3935 c0 -8 7 -15 15 -15 9 0 12 6 9 15 -4 8 -10 15 -15 15 -5
0 -9 -7 -9 -15z"/>
<path d="M8606 3886 c-18 -39 -20 -62 -6 -71 22 -14 8 -35 -30 -45 -32 -9 -41
-16 -48 -44 -6 -18 -7 -45 -5 -60 4 -21 2 -25 -10 -20 -11 4 -17 -3 -22 -25
-3 -16 -15 -41 -25 -53 -27 -36 -54 -152 -40 -177 13 -26 19 -26 48 -1 16 13
26 36 32 76 6 35 17 64 30 76 11 11 20 32 20 48 0 18 8 37 20 47 11 10 20 28
20 42 0 13 11 34 25 47 16 15 25 34 25 54 0 29 19 60 36 60 4 0 13 8 20 17 15
21 1 43 -27 43 -10 0 -21 5 -24 10 -11 18 -22 11 -39 -24z"/>
<path d="M3716 3865 c-3 -8 -12 -15 -20 -15 -15 0 -36 -29 -36 -50 0 -14 70
-44 80 -33 4 4 10 32 14 61 6 47 5 52 -13 52 -10 0 -21 -7 -25 -15z"/>
<path d="M6191 3821 c-15 -10 -8 -41 9 -41 15 0 25 29 14 40 -5 5 -15 5 -23 1z"/>
<path d="M4141 3807 c-8 -10 -7 -19 4 -33 14 -18 14 -17 15 14 0 36 -2 38 -19
19z"/>
<path d="M7929 3668 c-13 -30 -18 -33 -52 -30 -44 3 -59 -18 -32 -48 13 -14
30 -19 56 -18 36 1 40 4 49 37 12 44 13 91 2 91 -5 0 -15 -15 -23 -32z"/>
<path d="M7625 3627 c-34 -25 -30 -61 11 -92 35 -27 37 -27 50 -10 17 23 17
21 0 70 -16 44 -32 53 -61 32z"/>
<path d="M2093 3623 c-15 -6 -17 -63 -3 -63 6 0 13 6 16 14 9 23 0 53 -13 49z"/>
<path d="M4151 3554 c0 -11 3 -14 6 -6 3 7 2 16 -1 19 -3 4 -6 -2 -5 -13z"/>
<path d="M4097 3463 c-34 -26 -48 -53 -28 -53 5 0 16 -3 25 -6 20 -8 66 38 66
66 0 27 -20 25 -63 -7z"/>
<path d="M5191 3476 c-9 -11 -10 -20 -1 -35 12 -23 18 -25 38 -12 18 11 11 55
-9 59 -9 1 -21 -4 -28 -12z"/>
<path d="M7252 3455 c0 -16 2 -22 5 -12 2 9 2 23 0 30 -3 6 -5 -1 -5 -18z"/>
<path d="M4896 3409 c-25 -26 -27 -34 -18 -55 15 -32 52 -31 91 3 l31 27 -27
28 c-33 35 -41 34 -77 -3z"/>
<path d="M7197 3358 c-7 -25 0 -41 14 -33 12 8 12 55 0 55 -5 0 -11 -10 -14
-22z"/>
<path d="M8306 3225 c-9 -21 -16 -41 -16 -46 0 -5 -7 -9 -15 -9 -8 0 -15 -7
-15 -16 0 -11 6 -14 23 -8 30 9 28 7 38 60 11 59 5 67 -15 19z"/>
<path d="M8180 3038 c-19 -11 -37 -25 -39 -32 -2 -6 -24 -30 -48 -54 -23 -24
-43 -51 -43 -62 0 -10 -4 -22 -10 -25 -5 -3 -19 -25 -30 -48 -12 -23 -31 -60
-42 -81 -15 -28 -18 -43 -11 -54 17 -28 32 -24 46 10 8 18 30 47 48 64 19 17
45 46 59 65 24 31 59 67 102 104 16 13 19 24 13 48 -3 18 -6 44 -6 60 0 15 -1
27 -2 26 -1 0 -18 -10 -37 -21z"/>
<path d="M3895 2942 c-29 -6 -41 -20 -28 -33 13 -13 63 -1 63 16 0 18 -10 23
-35 17z"/>
<path d="M3460 2885 c0 -50 2 -55 26 -61 14 -4 34 -3 44 2 18 9 18 10 1 47
-16 34 -46 66 -63 67 -5 0 -8 -25 -8 -55z"/>
<path d="M3647 2923 c-14 -13 -6 -49 18 -75 13 -16 26 -28 29 -28 3 0 17 12
31 26 l26 26 -28 29 c-26 27 -61 37 -76 22z"/>
<path d="M6674 2882 c-16 -16 -39 -34 -51 -41 -13 -6 -23 -18 -23 -26 0 -8 -4
-15 -10 -15 -17 0 -11 -57 6 -64 19 -7 34 1 34 18 0 13 43 73 75 107 16 17 21
49 7 49 -5 0 -21 -13 -38 -28z"/>
<path d="M7878 2843 c-25 -6 -23 -22 2 -20 11 1 20 7 20 14 0 7 -1 12 -2 12
-2 -1 -11 -3 -20 -6z"/>
<path d="M7593 2766 c-18 -18 -33 -37 -33 -42 0 -5 -13 -15 -30 -21 -16 -6
-30 -18 -30 -26 0 -9 -9 -19 -21 -22 -15 -5 -19 -14 -17 -33 4 -33 32 -36 36
-5 2 14 21 35 47 53 54 37 125 105 125 119 0 23 -46 9 -77 -23z"/>
<path d="M3299 2763 c-17 -4 -34 -58 -23 -74 10 -16 54 -10 61 9 4 9 11 20 16
23 12 8 -10 49 -26 48 -7 -1 -19 -3 -28 -6z"/>
<path d="M3718 2745 c-8 -9 3 -45 13 -45 5 0 9 7 9 15 0 8 0 18 1 22 1 10 -16
15 -23 8z"/>
<path d="M2720 2686 c0 -9 7 -16 16 -16 9 0 14 5 12 12 -6 18 -28 21 -28 4z"/>
<path d="M7894 2688 c-3 -4 -2 -12 1 -18 6 -10 45 9 45 22 0 9 -40 6 -46 -4z"/>
<path d="M7431 2571 c-10 -17 -9 -21 3 -21 20 0 31 19 18 32 -7 7 -14 3 -21
-11z"/>
<path d="M7756 2465 c-11 -30 -6 -40 11 -22 12 12 14 20 6 28 -7 7 -12 6 -17
-6z"/>
<path d="M6878 2302 c-10 -2 -18 -8 -18 -13 0 -16 -44 -27 -116 -30 -78 -2
-88 -6 -133 -48 -25 -24 -30 -35 -25 -55 5 -22 12 -26 46 -26 44 0 69 11 115
50 21 19 48 30 82 35 71 10 134 75 84 87 -10 2 -26 2 -35 0z"/>
<path d="M7528 2243 c-10 -2 -18 -10 -18 -18 0 -14 -21 -25 -50 -25 -10 0 -22
-9 -25 -21 -9 -26 4 -39 16 -17 5 10 25 20 44 24 19 3 35 12 35 19 0 8 9 17
20 20 11 3 20 11 20 16 0 9 -12 10 -42 2z"/>
<path d="M6498 2146 c-13 -10 -15 -15 -6 -24 9 -9 -1 -12 -44 -12 -87 0 -268
-79 -268 -117 0 -7 -4 -13 -10 -13 -23 0 -8 -28 19 -33 16 -3 35 -13 44 -21
13 -13 17 -13 32 4 10 11 23 20 30 20 6 0 22 11 35 25 13 14 31 25 41 25 9 0
22 7 29 16 8 8 29 22 47 29 19 8 32 19 28 24 -7 12 26 31 53 31 23 0 38 40 19
52 -17 11 -29 9 -49 -6z"/>
<path d="M3837 2096 c-5 -12 1 -16 23 -16 17 0 30 5 30 10 0 6 -4 10 -9 10 -5
0 -16 3 -24 6 -8 3 -17 -2 -20 -10z"/>
<path d="M7292 2080 c-7 -11 -19 -20 -27 -20 -8 0 -15 -4 -15 -10 0 -5 -10
-18 -22 -30 l-22 -20 26 0 c18 0 29 7 33 21 4 11 18 24 31 29 14 6 24 18 24
30 0 26 -12 26 -28 0z"/>
<path d="M3880 2061 c0 -13 27 -21 45 -15 8 4 12 10 9 15 -7 12 -54 12 -54 0z"/>
<path d="M3720 2051 c0 -6 9 -16 20 -24 15 -10 20 -27 22 -63 l2 -49 33 3 c30
4 33 2 31 -19 -3 -23 16 -32 99 -46 17 -3 42 -16 54 -29 19 -20 32 -24 81 -24
47 0 60 4 65 18 4 9 12 21 20 25 7 4 13 14 13 22 0 18 -115 32 -134 16 -10 -8
-26 2 -68 44 -51 51 -59 55 -101 55 -42 0 -48 3 -74 40 -25 36 -63 54 -63 31z"/>
<path d="M4110 2050 c20 -13 63 -13 55 0 -3 6 -21 10 -38 10 -24 0 -28 -3 -17
-10z"/>
<path d="M4182 2013 c3 -17 45 -46 86 -58 18 -5 22 -2 22 14 0 33 -35 61 -76
61 -28 0 -35 -4 -32 -17z"/>
<path d="M5163 1969 c-18 -5 -35 -14 -38 -19 -3 -6 -30 -10 -59 -10 -40 0 -57
-5 -71 -20 -19 -21 -95 -29 -95 -10 0 6 -4 10 -10 10 -5 0 -10 -14 -10 -30 0
-17 -4 -38 -9 -48 -5 -9 -13 -29 -19 -43 -11 -28 -21 -29 -87 -12 -22 6 -86
11 -143 12 -109 1 -132 9 -154 51 -7 14 -17 28 -23 32 -15 11 -85 10 -85 -2 0
-8 -22 -20 -90 -47 -14 -6 -32 -23 -40 -39 -8 -16 -15 -30 -16 -32 -1 -2 -46
-6 -101 -9 -54 -3 -102 -9 -107 -13 -11 -11 37 -24 63 -17 34 8 119 -11 140
-32 12 -12 31 -21 44 -21 41 0 67 -12 67 -30 0 -20 40 -33 77 -26 33 7 80 -15
93 -42 10 -23 14 -24 70 -19 55 6 60 5 60 -13 0 -11 -6 -20 -12 -21 -7 0 1 -7
19 -15 41 -17 59 -10 78 31 19 39 56 52 173 59 46 3 110 11 143 18 46 9 66 9
92 0 43 -16 109 -15 130 1 10 6 21 26 25 42 8 28 6 31 -32 46 -25 9 -53 13
-72 9 -16 -4 -71 -6 -121 -5 -116 3 -144 20 -137 79 6 52 8 53 57 61 64 10 77
15 77 30 0 19 24 25 116 29 43 2 99 11 123 19 40 14 45 14 75 -4 17 -10 42
-19 57 -19 32 0 49 -17 49 -49 0 -43 14 -55 35 -31 10 11 26 20 35 20 10 0 29
12 44 26 17 18 45 31 83 38 73 15 83 36 16 36 -28 0 -58 7 -71 16 -20 14 -31
14 -87 3 -50 -10 -79 -10 -132 -1 -101 17 -184 21 -220 11z m-433 -319 c13 -9
13 -11 0 -20 -19 -13 -33 -12 -67 1 -26 10 -27 12 -8 19 28 12 57 12 75 0z"/>
<path d="M7065 1930 c-3 -5 1 -10 9 -10 9 0 16 5 16 10 0 6 -4 10 -9 10 -6 0
-13 -4 -16 -10z"/>
<path d="M6590 1769 c-19 -10 -49 -22 -66 -25 -18 -3 -42 -15 -54 -26 -18 -17
-35 -21 -84 -20 -33 1 -74 -3 -91 -8 -16 -6 -86 -16 -154 -23 l-123 -14 -64
33 c-51 27 -68 32 -91 25 -15 -5 -40 -12 -55 -15 -15 -4 -40 -19 -55 -35 -49
-49 -104 -62 -229 -55 -60 3 -116 10 -125 15 -11 6 -21 4 -28 -4 -19 -23 9
-37 74 -37 70 0 79 -5 104 -51 l18 -34 86 2 c77 2 93 6 169 42 59 28 102 41
149 46 37 3 83 15 103 26 49 26 119 24 179 -5 41 -20 54 -22 90 -14 23 5 49
16 58 24 8 8 21 14 27 14 6 0 26 9 44 19 18 10 49 22 68 26 19 4 44 13 55 20
11 8 39 19 62 25 26 8 43 20 47 32 2 11 9 17 15 13 7 -3 8 0 5 9 -9 23 -90 20
-134 -5z"/>
<path d="M5321 1701 c-16 -11 -2 -43 18 -39 9 2 17 10 19 19 3 19 -19 31 -37
20z"/>
<path d="M5458 1473 c-27 -2 -48 -8 -48 -14 0 -10 82 -12 117 -3 26 7 21 25
-5 22 -9 -1 -38 -3 -64 -5z"/>
</g>
</svg>
